<?xml version="1.0" encoding="UTF-8"?>
<!--Generator: Apple Native CoreSVG 326-->
<!DOCTYPE svg
PUBLIC "-//W3C//DTD SVG 1.1//EN"
       "http://www.w3.org/Graphics/SVG/1.1/DTD/svg11.dtd">
<svg version="1.1" xmlns="http://www.w3.org/2000/svg" xmlns:xlink="http://www.w3.org/1999/xlink" viewBox="0 0 294.75 230.375">
 <g>
  <path d="M294.75 39L294.75 191.625C294.75 217.375 281.75 230.375 255.5 230.375L39.25 230.375C13.125 230.375 0 217.5 0 191.625L0 39C0 13.125 13.125 0.25 39.25 0.25L255.5 0.25C281.75 0.25 294.75 13.25 294.75 39ZM20.125 63.25L20.125 190.625C20.125 203.625 27 210.25 39.5 210.25L255.25 210.25C267.625 210.25 274.625 203.625 274.625 190.625L274.625 63.25ZM28.5 31.75C28.5 37.625 33.5 42.875 39.625 42.875C45.75 42.875 50.875 37.625 50.875 31.75C50.875 25.875 45.75 20.625 39.625 20.625C33.5 20.625 28.5 25.875 28.5 31.75ZM64.375 31.75C64.375 37.625 69.375 42.875 75.5 42.875C81.625 42.875 86.75 37.625 86.75 31.75C86.75 25.875 81.625 20.625 75.5 20.625C69.375 20.625 64.375 25.875 64.375 31.75ZM100.25 31.75C100.25 37.625 105.25 42.875 111.375 42.875C117.5 42.875 122.5 37.625 122.5 31.75C122.5 25.875 117.5 20.625 111.375 20.625C105.25 20.625 100.25 25.875 100.25 31.75Z" fill="white" fill-opacity="0.85"/>
 </g>
</svg>
